<?xml version="1.0" encoding="UTF-8" standalone="no"?>
<svg
   viewBox="0 0 500 500"
   height="500"
   width="500"
   xml:space="preserve"
   id="svg2"
   version="1.1"
   sodipodi:docname="Blue-main.svg"
   inkscape:version="1.2.2 (1:1.2.2+202305151914+b0a8486541)"
   xmlns:inkscape="http://www.inkscape.org/namespaces/inkscape"
   xmlns:sodipodi="http://sodipodi.sourceforge.net/DTD/sodipodi-0.dtd"
   xmlns="http://www.w3.org/2000/svg"
   xmlns:svg="http://www.w3.org/2000/svg"
   xmlns:rdf="http://www.w3.org/1999/02/22-rdf-syntax-ns#"
   xmlns:cc="http://creativecommons.org/ns#"
   xmlns:dc="http://purl.org/dc/elements/1.1/"><sodipodi:namedview
     id="namedview175"
     pagecolor="#ffffff"
     bordercolor="#000000"
     borderopacity="0.25"
     inkscape:showpageshadow="2"
     inkscape:pageopacity="0.0"
     inkscape:pagecheckerboard="0"
     inkscape:deskcolor="#d1d1d1"
     showgrid="false"
     inkscape:zoom="1.5416667"
     inkscape:cx="368.10811"
     inkscape:cy="190.7027"
     inkscape:window-width="1854"
     inkscape:window-height="1011"
     inkscape:window-x="0"
     inkscape:window-y="0"
     inkscape:window-maximized="1"
     inkscape:current-layer="svg2" /><metadata
     id="metadata8"><rdf:RDF><cc:Work
         rdf:about=""><dc:format>image/svg+xml</dc:format><dc:type
           rdf:resource="http://purl.org/dc/dcmitype/StillImage" /></cc:Work></rdf:RDF></metadata><defs
     id="defs6"><clipPath
       id="clipPath18"
       clipPathUnits="userSpaceOnUse"><path
         id="path16"
         d="M 0,792 H 612 V 0 H 0 Z" /></clipPath><clipPath
       id="clipPath38"
       clipPathUnits="userSpaceOnUse"><path
         id="path36"
         d="M 167.014,275.81 H 312.062 V 550.162 H 167.014 Z" /></clipPath><clipPath
       id="clipPath170"
       clipPathUnits="userSpaceOnUse"><path
         id="path168"
         d="M 167.014,275.81 H 312.062 V 550.162 H 167.014 Z" /></clipPath><clipPath
       id="clipPath178"
       clipPathUnits="userSpaceOnUse"><path
         id="path176"
         d="M 138.914,263.539 H 312.062 V 564.37 H 138.914 Z" /></clipPath><clipPath
       id="clipPath194"
       clipPathUnits="userSpaceOnUse"><path
         id="path192"
         d="M 0,792 H 612 V 0 H 0 Z" /></clipPath><clipPath
       id="clipPath206"
       clipPathUnits="userSpaceOnUse"><path
         id="path204"
         d="m 207.112,425.689 h 168.925 v 84.644 H 207.112 Z" /></clipPath><clipPath
       id="clipPath218"
       clipPathUnits="userSpaceOnUse"><path
         id="path216"
         d="M 0,792 H 612 V 0 H 0 Z" /></clipPath></defs><g
     transform="matrix(1.3333333,0,0,-1.3333333,-95.733689,814.92844)"
     id="g10"><g
   id="g12"><g
     clip-path="url(#clipPath18)"
     id="g14"><g
       transform="translate(307.7646,564.4658)"
       id="g20"><path
         id="path22"
         style="fill:#ffffff;fill-opacity:1;fill-rule:nonzero;stroke:none"
         d="M 0,0 V 10.368 C 3.025,8.626 5.923,6.956 8.985,5.192 5.972,3.451 3.079,1.779 0,0" /></g><g
       transform="translate(343.7335,582.899)"
       id="g24"><path
         id="path26"
         style="fill:#ffffff;fill-opacity:1;fill-rule:nonzero;stroke:none"
         d="m 0,0 v -11.155 c -3.245,1.871 -6.361,3.668 -9.662,5.572 C -6.397,-3.696 -3.306,-1.911 0,0" /></g><g
       transform="translate(327.6561,564.5192)"
       id="g28"><path
         id="path30"
         style="fill:#ffffff;fill-opacity:1;fill-rule:nonzero;stroke:none"
         d="M 0,0 C -2.971,1.712 -5.847,3.368 -8.901,5.128 -5.875,6.88 -3.005,8.54 0,10.279 Z" /></g></g></g><g
   id="g32"><g
     clip-path="url(#clipPath38)"
     id="g34"><g
       transform="translate(177.0685,409.6882)"
       id="g40"><path
         id="path42"
         style="fill:none;stroke:#231f20;stroke-width:5;stroke-linecap:butt;stroke-linejoin:miter;stroke-miterlimit:10;stroke-dasharray:none;stroke-opacity:1"
         d="m 0,0 c 0,-66.2 54.226,-119.866 121.117,-119.866 66.891,0 121.117,53.666 121.117,119.866 0,66.2 -54.226,119.866 -121.117,119.866 C 54.226,119.866 0,66.2 0,0 Z" /></g></g></g><text
   id="text46"
   style="font-variant:normal;font-weight:normal;font-stretch:normal;font-size:13.6533px;font-family:'BankGothic Lt BT';-inkscape-font-specification:BankGothicBT-Light;writing-mode:lr-tb;fill:#231f20;fill-opacity:1;fill-rule:nonzero;stroke:none"
   transform="matrix(-0.96629071,0.26137918,0.2574534,0.95175948,276.4694,305.5565)"><tspan
     id="tspan44"
     y="0"
     x="0">B</tspan></text>
<text
   id="text50"
   style="font-variant:normal;font-weight:normal;font-stretch:normal;font-size:13.6419px;font-family:'BankGothic Lt BT';-inkscape-font-specification:BankGothicBT-Light;writing-mode:lr-tb;fill:#231f20;fill-opacity:1;fill-rule:nonzero;stroke:none"
   transform="matrix(-0.93750776,0.35327155,0.34796437,0.92340416,266.5175,308.2225)"><tspan
     id="tspan48"
     y="0"
     x="0">U</tspan></text>
<text
   id="text54"
   style="font-variant:normal;font-weight:normal;font-stretch:normal;font-size:13.6316px;font-family:'BankGothic Lt BT';-inkscape-font-specification:BankGothicBT-Light;writing-mode:lr-tb;fill:#231f20;fill-opacity:1;fill-rule:nonzero;stroke:none"
   transform="matrix(-0.91080261,0.41915098,0.41284211,0.89709916,256.279,312.1936)"><tspan
     id="tspan52"
     y="0"
     x="0">I</tspan></text>
<text
   id="text58"
   style="font-variant:normal;font-weight:normal;font-stretch:normal;font-size:13.6216px;font-family:'BankGothic Lt BT';-inkscape-font-specification:BankGothicBT-Light;writing-mode:lr-tb;fill:#231f20;fill-opacity:1;fill-rule:nonzero;stroke:none"
   transform="matrix(-0.88399604,0.47463013,0.46749438,0.87070094,251.9515,314.1118)"><tspan
     id="tspan56"
     y="0"
     x="0">L</tspan></text>
<text
   id="text62"
   style="font-variant:normal;font-weight:normal;font-stretch:normal;font-size:13.6055px;font-family:'BankGothic Lt BT';-inkscape-font-specification:BankGothicBT-Light;writing-mode:lr-tb;fill:#231f20;fill-opacity:1;fill-rule:nonzero;stroke:none"
   transform="matrix(-0.83923299,0.55207745,0.543772,0.82661311,244.2168,318.2035)"><tspan
     id="tspan60"
     y="0"
     x="0">D</tspan></text>
<text
   id="text66"
   style="font-variant:normal;font-weight:normal;font-stretch:normal;font-size:13.5918px;font-family:'BankGothic Lt BT';-inkscape-font-specification:BankGothicBT-Light;writing-mode:lr-tb;fill:#231f20;fill-opacity:1;fill-rule:nonzero;stroke:none"
   transform="matrix(-0.79868169,0.61094312,0.60175374,0.78666707,235.1644,324.2852)"><tspan
     id="tspan64"
     y="0"
     x="0">I</tspan></text>
<text
   id="text70"
   style="font-variant:normal;font-weight:normal;font-stretch:normal;font-size:13.577px;font-family:'BankGothic Lt BT';-inkscape-font-specification:BankGothicBT-Light;writing-mode:lr-tb;fill:#231f20;fill-opacity:1;fill-rule:nonzero;stroke:none"
   transform="matrix(-0.75266885,0.66845302,0.65839927,0.74134825,231.3517,327.0416)"><tspan
     id="tspan68"
     y="0"
     x="0">N</tspan></text>
<text
   id="text74"
   style="font-variant:normal;font-weight:normal;font-stretch:normal;font-size:13.5737px;font-family:'BankGothic Lt BT';-inkscape-font-specification:BankGothicBT-Light;writing-mode:lr-tb;fill:#231f20;fill-opacity:1;fill-rule:nonzero;stroke:none"
   transform="matrix(-0.68070527,0.74194126,0.73077998,0.67046489,222.934,334.5117)"><tspan
     id="tspan72"
     y="0"
     x="0">G</tspan></text>
<text
   id="text78"
   style="font-variant:normal;font-weight:normal;font-stretch:normal;font-size:13.6012px;font-family:'BankGothic Lt BT';-inkscape-font-specification:BankGothicBT-Light;writing-mode:lr-tb;fill:#231f20;fill-opacity:1;fill-rule:nonzero;stroke:none"
   transform="matrix(-0.57133335,0.82663498,0.81420222,0.5627385,212.426,346.5798)"><tspan
     id="tspan76"
     y="0"
     x="0">F</tspan></text>
<text
   id="text82"
   style="font-variant:normal;font-weight:normal;font-stretch:normal;font-size:13.6181px;font-family:'BankGothic Lt BT';-inkscape-font-specification:BankGothicBT-Light;writing-mode:lr-tb;fill:#231f20;fill-opacity:1;fill-rule:nonzero;stroke:none"
   transform="matrix(-0.4923751,0.87452903,0.86137739,0.48497317,207.5178,353.5675)"><tspan
     id="tspan80"
     y="0"
     x="0">U</tspan></text>
<text
   id="text86"
   style="font-variant:normal;font-weight:normal;font-stretch:normal;font-size:13.6327px;font-family:'BankGothic Lt BT';-inkscape-font-specification:BankGothicBT-Light;writing-mode:lr-tb;fill:#231f20;fill-opacity:1;fill-rule:nonzero;stroke:none"
   transform="matrix(-0.41213259,0.91390227,0.90015596,0.40593428,202.1938,363.1503)"><tspan
     id="tspan84"
     y="0"
     x="0">T</tspan></text>
<text
   id="text90"
   style="font-variant:normal;font-weight:normal;font-stretch:normal;font-size:13.6454px;font-family:'BankGothic Lt BT';-inkscape-font-specification:BankGothicBT-Light;writing-mode:lr-tb;fill:#231f20;fill-opacity:1;fill-rule:nonzero;stroke:none"
   transform="matrix(-0.32804389,0.94636079,0.93212159,0.32311184,198.92,370.217)"><tspan
     id="tspan88"
     y="0"
     x="0">U</tspan></text>
<text
   id="text94"
   style="font-variant:normal;font-weight:normal;font-stretch:normal;font-size:13.6565px;font-family:'BankGothic Lt BT';-inkscape-font-specification:BankGothicBT-Light;writing-mode:lr-tb;fill:#231f20;fill-opacity:1;fill-rule:nonzero;stroke:none"
   transform="matrix(-0.22988346,0.97402809,0.95938303,0.22642722,195.3393,380.5713)"><tspan
     id="tspan92"
     y="0"
     x="0">R</tspan></text>
<text
   id="text98"
   style="font-variant:normal;font-weight:normal;font-stretch:normal;font-size:13.6635px;font-family:'BankGothic Lt BT';-inkscape-font-specification:BankGothicBT-Light;writing-mode:lr-tb;fill:#231f20;fill-opacity:1;fill-rule:nonzero;stroke:none"
   transform="matrix(-0.13679516,0.99088118,0.97597284,0.13473859,192.999,390.5309)"><tspan
     id="tspan96"
     y="0"
     x="0">E</tspan></text>
<text
   id="text102"
   style="font-variant:normal;font-weight:normal;font-stretch:normal;font-size:13.6664px;font-family:'BankGothic Lt BT';-inkscape-font-specification:BankGothicBT-Light;writing-mode:lr-tb;fill:#231f20;fill-opacity:1;fill-rule:nonzero;stroke:none"
   transform="matrix(-0.06788192,0.99776253,0.9827549,0.06685751,191.7698,399.9822)"><tspan
     id="tspan100"
     y="0"
     x="0">,</tspan></text>
<text
   id="text106"
   style="font-variant:normal;font-weight:normal;font-stretch:normal;font-size:13.6665px;font-family:'BankGothic Lt BT';-inkscape-font-specification:BankGothicBT-Light;writing-mode:lr-tb;fill:#231f20;fill-opacity:1;fill-rule:nonzero;stroke:none"
   transform="matrix(0.0606738,0.99821282,0.98319803,-0.05975916,191.1719,409.9485)"><tspan
     id="tspan104"
     y="0"
     x="0">M</tspan></text>
<text
   id="text110"
   style="font-variant:normal;font-weight:normal;font-stretch:normal;font-size:13.6618px;font-family:'BankGothic Lt BT';-inkscape-font-specification:BankGothicBT-Light;writing-mode:lr-tb;fill:#231f20;fill-opacity:1;fill-rule:nonzero;stroke:none"
   transform="matrix(0.16474461,0.98674751,0.97190315,-0.16226323,191.9581,422.047)"><tspan
     id="tspan108"
     y="0"
     x="0">A</tspan></text>
<text
   id="text114"
   style="font-variant:normal;font-weight:normal;font-stretch:normal;font-size:13.6532px;font-family:'BankGothic Lt BT';-inkscape-font-specification:BankGothicBT-Light;writing-mode:lr-tb;fill:#231f20;fill-opacity:1;fill-rule:nonzero;stroke:none"
   transform="matrix(0.26374838,0.96566623,0.95114213,-0.25978593,193.5175,431.6804)"><tspan
     id="tspan112"
     y="0"
     x="0">N</tspan></text>
<text
   id="text118"
   style="font-variant:normal;font-weight:normal;font-stretch:normal;font-size:13.6409px;font-family:'BankGothic Lt BT';-inkscape-font-specification:BankGothicBT-Light;writing-mode:lr-tb;fill:#231f20;fill-opacity:1;fill-rule:nonzero;stroke:none"
   transform="matrix(0.35974109,0.93512011,0.92105947,-0.3543309,196.5069,442.5175)"><tspan
     id="tspan116"
     y="0"
     x="0">A</tspan></text>
<text
   id="text122"
   style="font-variant:normal;font-weight:normal;font-stretch:normal;font-size:13.626px;font-family:'BankGothic Lt BT';-inkscape-font-specification:BankGothicBT-Light;writing-mode:lr-tb;fill:#231f20;fill-opacity:1;fill-rule:nonzero;stroke:none"
   transform="matrix(0.45066714,0.89607963,0.88260541,-0.44389334,199.9745,451.6397)"><tspan
     id="tspan120"
     y="0"
     x="0">G</tspan></text>
<text
   id="text126"
   style="font-variant:normal;font-weight:normal;font-stretch:normal;font-size:13.6133px;font-family:'BankGothic Lt BT';-inkscape-font-specification:BankGothicBT-Light;writing-mode:lr-tb;fill:#231f20;fill-opacity:1;fill-rule:nonzero;stroke:none"
   transform="matrix(0.51628368,0.86105066,0.84810005,-0.50851918,205.0217,461.4253)"><tspan
     id="tspan124"
     y="0"
     x="0">I</tspan></text>
<text
   id="text130"
   style="font-variant:normal;font-weight:normal;font-stretch:normal;font-size:13.5992px;font-family:'BankGothic Lt BT';-inkscape-font-specification:BankGothicBT-Light;writing-mode:lr-tb;fill:#231f20;fill-opacity:1;fill-rule:nonzero;stroke:none"
   transform="matrix(0.57986509,0.82084989,0.80850358,-0.57114399,207.3285,465.5216)"><tspan
     id="tspan128"
     y="0"
     x="0">N</tspan></text>
<text
   id="text134"
   style="font-variant:normal;font-weight:normal;font-stretch:normal;font-size:13.5787px;font-family:'BankGothic Lt BT';-inkscape-font-specification:BankGothicBT-Light;writing-mode:lr-tb;fill:#231f20;fill-opacity:1;fill-rule:nonzero;stroke:none"
   transform="matrix(0.66211907,0.75808572,0.74668549,-0.65215492,213.8121,474.7054)"><tspan
     id="tspan132"
     y="0"
     x="0">G</tspan></text>
<text
   id="text138"
   style="font-variant:normal;font-weight:normal;font-stretch:normal;font-size:13.5804px;font-family:'BankGothic Lt BT';-inkscape-font-specification:BankGothicBT-Light;writing-mode:lr-tb;fill:#231f20;fill-opacity:1;fill-rule:nonzero;stroke:none"
   transform="matrix(0.76352006,0.65565128,0.64578411,-0.75204027,224.6133,486.5002)"><tspan
     id="tspan136"
     y="0"
     x="0">R</tspan></text>
<text
   id="text142"
   style="font-variant:normal;font-weight:normal;font-stretch:normal;font-size:13.5983px;font-family:'BankGothic Lt BT';-inkscape-font-specification:BankGothicBT-Light;writing-mode:lr-tb;fill:#231f20;fill-opacity:1;fill-rule:nonzero;stroke:none"
   transform="matrix(0.81820591,0.58370581,0.57492529,-0.80590289,232.394,493.169)"><tspan
     id="tspan140"
     y="0"
     x="0">E</tspan></text>
<text
   id="text146"
   style="font-variant:normal;font-weight:normal;font-stretch:normal;font-size:13.6146px;font-family:'BankGothic Lt BT';-inkscape-font-specification:BankGothicBT-Light;writing-mode:lr-tb;fill:#231f20;fill-opacity:1;fill-rule:nonzero;stroke:none"
   transform="matrix(0.86503176,0.50937797,0.5017171,-0.85202371,240.1081,498.6891)"><tspan
     id="tspan144"
     y="0"
     x="0">A</tspan></text>
<text
   id="text150"
   style="font-variant:normal;font-weight:normal;font-stretch:normal;font-size:13.6289px;font-family:'BankGothic Lt BT';-inkscape-font-specification:BankGothicBT-Light;writing-mode:lr-tb;fill:#231f20;fill-opacity:1;fill-rule:nonzero;stroke:none"
   transform="matrix(0.90382686,0.43442858,0.42789835,-0.89023813,248.5489,503.6416)"><tspan
     id="tspan148"
     y="0"
     x="0">L</tspan></text>
<text
   id="text154"
   style="font-variant:normal;font-weight:normal;font-stretch:normal;font-size:13.6382px;font-family:'BankGothic Lt BT';-inkscape-font-specification:BankGothicBT-Light;writing-mode:lr-tb;fill:#231f20;fill-opacity:1;fill-rule:nonzero;stroke:none"
   transform="matrix(0.92810658,0.37799719,0.37231462,-0.91415312,256.5109,507.403)"><tspan
     id="tspan152"
     y="0"
     x="0">I</tspan></text>
<text
   id="text158"
   style="font-variant:normal;font-weight:normal;font-stretch:normal;font-size:13.6459px;font-family:'BankGothic Lt BT';-inkscape-font-specification:BankGothicBT-Light;writing-mode:lr-tb;fill:#231f20;fill-opacity:1;fill-rule:nonzero;stroke:none"
   transform="matrix(0.94750352,0.32463327,0.31974534,-0.93325011,260.8546,509.2238)"><tspan
     id="tspan156"
     y="0"
     x="0">T</tspan></text>
<text
   id="text162"
   style="font-variant:normal;font-weight:normal;font-stretch:normal;font-size:13.6544px;font-family:'BankGothic Lt BT';-inkscape-font-specification:BankGothicBT-Light;writing-mode:lr-tb;fill:#231f20;fill-opacity:1;fill-rule:nonzero;stroke:none"
   transform="matrix(0.96881035,0.25158237,0.24780336,-0.95424359,268.2462,511.7854)"><tspan
     id="tspan160"
     y="0"
     x="0">Y</tspan></text>
<g
   id="g164"><g
     clip-path="url(#clipPath170)"
     id="g166" /></g><g
   id="g172"><g
     clip-path="url(#clipPath178)"
     id="g174"><g
       transform="translate(425.5536,409.6534)"
       id="g180"><path
         id="path182"
         style="fill:#00adef;fill-opacity:1;fill-rule:nonzero;stroke:none"
         d="m 0,0 c -0.187,71.76 -58.79,131.707 -133.875,129.666 -69.479,-1.889 -126.798,-58.983 -126.028,-131.49 0.749,-70.522 58,-128.361 129.972,-128.338 C -57.808,-130.14 -0.046,-71.895 0,0 m -255.793,74.101 c 2.79,4.223 5.565,8.388 8.288,12.587 0.4,0.618 0.827,0.65 1.413,0.507 1.927,-0.469 3.857,-0.926 5.781,-1.406 0.597,-0.148 1.021,-0.102 1.461,0.456 6.471,8.204 13.839,15.521 21.986,22.055 0.526,0.422 0.674,0.778 0.508,1.416 -0.507,1.954 -0.946,3.927 -1.436,5.886 -0.145,0.578 -0.085,0.965 0.479,1.332 4.047,2.628 8.063,5.303 12.115,7.923 0.248,0.161 0.808,0.112 1.072,-0.065 1.648,-1.109 3.274,-2.254 4.862,-3.449 0.565,-0.425 0.977,-0.473 1.61,-0.117 8.595,4.832 17.6,8.757 27.066,11.487 2.451,0.706 3.394,1.813 3.481,4.172 0.046,1.264 0.363,2.525 0.633,3.771 0.061,0.28 0.406,0.656 0.676,0.711 4.687,0.953 9.384,1.853 14.074,2.792 0.701,0.14 1.081,-0.072 1.451,-0.682 0.939,-1.546 2.018,-3.009 2.937,-4.566 0.492,-0.834 1.062,-1.068 1.993,-0.948 6.815,0.879 13.668,1.039 20.522,0.774 3.79,-0.146 7.568,-0.589 11.355,-0.846 0.348,-0.024 0.867,0.238 1.059,0.53 1.09,1.661 2.127,3.358 3.132,5.072 0.336,0.573 0.705,0.784 1.364,0.654 4.727,-0.936 9.462,-1.835 14.181,-2.807 0.297,-0.061 0.634,-0.608 0.705,-0.976 0.391,-2.018 0.732,-4.046 1.027,-6.08 0.086,-0.592 0.337,-0.837 0.885,-0.99 10.054,-2.817 19.558,-6.962 28.692,-11.98 0.842,-0.463 1.414,-0.553 2.227,0.088 1.695,1.337 3.499,2.536 5.275,3.804 4.174,-2.832 8.32,-5.633 12.439,-8.472 0.221,-0.153 0.359,-0.66 0.297,-0.952 -0.435,-2.046 -0.898,-4.087 -1.433,-6.108 -0.158,-0.595 -0.022,-0.902 0.422,-1.256 8.225,-6.555 15.643,-13.921 22.165,-22.178 0.388,-0.491 0.748,-0.637 1.348,-0.484 1.922,0.491 3.862,0.916 5.784,1.409 0.669,0.171 1.119,0.077 1.522,-0.544 2.571,-3.957 5.162,-7.903 7.779,-11.83 0.368,-0.553 0.288,-0.922 -0.073,-1.413 -1.198,-1.629 -2.334,-3.305 -3.545,-4.925 -0.354,-0.474 -0.376,-0.82 -0.091,-1.324 5.232,-9.244 9.162,-19.029 12.082,-29.227 0.201,-0.7 0.62,-0.854 1.202,-0.945 1.926,-0.301 3.848,-0.641 5.78,-0.898 0.869,-0.116 1.212,-0.489 1.374,-1.373 C 12.97,30.121 13.882,25.57 14.8,21.02 14.918,20.436 14.797,20.135 14.277,19.829 12.534,18.802 10.861,17.654 9.091,16.679 8.25,16.217 8.186,15.643 8.288,14.85 9.146,8.174 9.301,1.463 9.04,-5.249 8.891,-9.074 8.436,-12.887 8.177,-16.709 c -0.023,-0.332 0.31,-0.82 0.618,-1.021 1.574,-1.029 3.206,-1.968 4.784,-2.99 0.247,-0.16 0.505,-0.614 0.456,-0.876 -0.903,-4.842 -1.841,-9.679 -2.818,-14.507 -0.054,-0.266 -0.48,-0.595 -0.779,-0.651 -1.81,-0.342 -3.632,-0.624 -5.453,-0.903 -0.676,-0.103 -1.111,-0.31 -1.326,-1.09 -2.834,-10.311 -7.042,-20.057 -12.236,-29.386 -0.376,-0.677 -0.422,-1.129 0.084,-1.783 1.235,-1.598 2.362,-3.28 3.553,-4.956 -2.82,-4.164 -5.617,-8.313 -8.457,-12.432 -0.167,-0.242 -0.721,-0.39 -1.04,-0.323 -1.836,0.386 -3.65,0.877 -5.486,1.26 -0.319,0.066 -0.852,-0.107 -1.05,-0.356 -6.718,-8.47 -14.322,-16.045 -22.852,-22.687 -0.46,-0.358 -0.576,-0.674 -0.418,-1.257 0.481,-1.777 0.903,-3.571 1.278,-5.374 0.075,-0.362 -0.022,-0.981 -0.27,-1.156 -4.08,-2.888 -8.197,-5.724 -12.295,-8.563 -1.921,1.371 -3.693,2.606 -5.427,3.892 -0.499,0.371 -0.852,0.386 -1.404,0.077 -8.602,-4.815 -17.641,-8.615 -27.049,-11.546 -0.507,-0.158 -1.015,-0.382 -1.534,-0.42 -1.51,-0.108 -1.94,-0.997 -2.073,-2.365 -0.159,-1.654 -0.497,-3.294 -0.835,-4.924 -0.064,-0.309 -0.45,-0.726 -0.749,-0.787 -4.686,-0.958 -9.384,-1.862 -14.076,-2.791 -0.602,-0.119 -0.977,0.045 -1.3,0.594 -0.935,1.591 -1.973,3.122 -2.876,4.73 -0.418,0.747 -0.907,0.939 -1.71,0.836 -5.857,-0.756 -11.745,-1.049 -17.64,-0.832 -4.643,0.172 -9.278,0.553 -13.911,0.91 -0.625,0.048 -0.894,-0.123 -1.175,-0.592 -1.023,-1.704 -2.09,-3.382 -3.098,-5.095 -0.304,-0.516 -0.631,-0.645 -1.209,-0.531 -4.693,0.929 -9.39,1.837 -14.091,2.73 -0.533,0.101 -0.758,0.307 -0.843,0.872 -0.292,1.963 -0.722,3.907 -0.967,5.874 -0.098,0.786 -0.416,1.077 -1.113,1.279 -9.124,2.636 -17.87,6.221 -26.306,10.574 -0.945,0.488 -1.872,1.019 -2.774,1.582 -0.559,0.349 -0.983,0.339 -1.531,-0.067 -1.764,-1.311 -3.572,-2.563 -5.43,-3.884 -2.362,1.548 -4.733,3.101 -7.104,4.656 -1.84,1.207 -3.667,2.434 -5.526,3.611 -0.546,0.346 -0.667,0.709 -0.508,1.32 0.499,1.92 0.929,3.858 1.419,5.781 0.167,0.656 0.048,1.057 -0.532,1.515 -8.194,6.485 -15.51,13.854 -21.987,22.052 -0.434,0.55 -0.799,0.633 -1.427,0.47 -1.956,-0.507 -3.921,-0.981 -5.898,-1.391 -0.359,-0.075 -0.975,0.083 -1.166,0.351 -2.87,4.051 -5.689,8.138 -8.516,12.212 1.461,2.04 2.781,3.924 4.151,5.771 0.432,0.584 0.496,1.021 0.119,1.705 -4.981,9.037 -9.033,18.468 -11.833,28.414 -0.241,0.856 -0.567,1.268 -1.534,1.378 -2.04,0.232 -4.053,0.688 -6.086,0.993 -0.604,0.09 -0.831,0.343 -0.944,0.92 -0.893,4.592 -1.813,9.178 -2.73,13.766 -0.147,0.736 0.032,1.242 0.746,1.649 1.757,1 3.454,2.107 5.199,3.129 0.563,0.331 0.76,0.681 0.677,1.362 -0.784,6.39 -1.054,12.812 -0.858,19.241 0.117,3.826 0.488,7.646 0.797,11.465 0.072,0.887 0,1.498 -0.906,1.986 -1.716,0.924 -3.332,2.033 -5.02,3.012 -0.593,0.344 -0.762,0.754 -0.637,1.39 0.926,4.693 1.824,9.392 2.795,14.075 0.069,0.331 0.628,0.721 1.014,0.796 1.949,0.377 3.914,0.671 5.877,0.966 0.793,0.119 1.23,0.399 1.489,1.293 2.886,9.982 6.727,19.578 11.848,28.636 0.366,0.648 0.362,1.081 -0.096,1.689 -1.364,1.811 -2.648,3.682 -3.965,5.532" /></g><g
       transform="translate(425.5536,409.6534)"
       id="g184"><path
         id="path186"
         style="fill:none;stroke:#231f20;stroke-width:1;stroke-linecap:butt;stroke-linejoin:miter;stroke-miterlimit:10;stroke-dasharray:none;stroke-opacity:1"
         d="m 0,0 c -0.187,71.76 -58.79,131.707 -133.875,129.666 -69.479,-1.889 -126.798,-58.983 -126.028,-131.49 0.749,-70.522 58,-128.361 129.972,-128.338 C -57.808,-130.14 -0.046,-71.895 0,0 Z m -255.793,74.101 c 2.79,4.223 5.565,8.388 8.288,12.587 0.4,0.618 0.827,0.65 1.413,0.507 1.927,-0.469 3.857,-0.926 5.781,-1.406 0.597,-0.148 1.021,-0.102 1.461,0.456 6.471,8.204 13.839,15.521 21.986,22.055 0.526,0.422 0.674,0.778 0.508,1.416 -0.507,1.954 -0.946,3.927 -1.436,5.886 -0.145,0.578 -0.085,0.965 0.479,1.332 4.047,2.628 8.063,5.303 12.115,7.923 0.248,0.161 0.808,0.112 1.072,-0.065 1.648,-1.109 3.274,-2.254 4.862,-3.449 0.565,-0.425 0.977,-0.473 1.61,-0.117 8.595,4.832 17.6,8.757 27.066,11.487 2.451,0.706 3.394,1.813 3.481,4.172 0.046,1.264 0.363,2.525 0.633,3.771 0.061,0.28 0.406,0.656 0.676,0.711 4.687,0.953 9.384,1.853 14.074,2.792 0.701,0.14 1.081,-0.072 1.451,-0.682 0.939,-1.546 2.018,-3.009 2.937,-4.566 0.492,-0.834 1.062,-1.068 1.993,-0.948 6.815,0.879 13.668,1.039 20.522,0.774 3.79,-0.146 7.568,-0.589 11.355,-0.846 0.348,-0.024 0.867,0.238 1.059,0.53 1.09,1.661 2.127,3.358 3.132,5.072 0.336,0.573 0.705,0.784 1.364,0.654 4.727,-0.936 9.462,-1.835 14.181,-2.807 0.297,-0.061 0.634,-0.608 0.705,-0.976 0.391,-2.018 0.732,-4.046 1.027,-6.08 0.086,-0.592 0.337,-0.837 0.885,-0.99 10.054,-2.817 19.558,-6.962 28.692,-11.98 0.842,-0.463 1.414,-0.553 2.227,0.088 1.695,1.337 3.499,2.536 5.275,3.804 4.174,-2.832 8.32,-5.633 12.439,-8.472 0.221,-0.153 0.359,-0.66 0.297,-0.952 -0.435,-2.046 -0.898,-4.087 -1.433,-6.108 -0.158,-0.595 -0.022,-0.902 0.422,-1.256 8.225,-6.555 15.643,-13.921 22.165,-22.178 0.388,-0.491 0.748,-0.637 1.348,-0.484 1.922,0.491 3.862,0.916 5.784,1.409 0.669,0.171 1.119,0.077 1.522,-0.544 2.571,-3.957 5.162,-7.903 7.779,-11.83 0.368,-0.553 0.288,-0.922 -0.073,-1.413 -1.198,-1.629 -2.334,-3.305 -3.545,-4.925 -0.354,-0.474 -0.376,-0.82 -0.091,-1.324 5.232,-9.244 9.162,-19.029 12.082,-29.227 0.201,-0.7 0.62,-0.854 1.202,-0.945 1.926,-0.301 3.848,-0.641 5.78,-0.898 0.869,-0.116 1.212,-0.489 1.374,-1.373 C 12.97,30.121 13.882,25.57 14.8,21.02 14.918,20.436 14.797,20.135 14.277,19.829 12.534,18.802 10.861,17.654 9.091,16.679 8.25,16.217 8.186,15.643 8.288,14.85 9.146,8.174 9.301,1.463 9.04,-5.249 8.891,-9.074 8.436,-12.887 8.177,-16.709 c -0.023,-0.332 0.31,-0.82 0.618,-1.021 1.574,-1.029 3.206,-1.968 4.784,-2.99 0.247,-0.16 0.505,-0.614 0.456,-0.876 -0.903,-4.842 -1.841,-9.679 -2.818,-14.507 -0.054,-0.266 -0.48,-0.595 -0.779,-0.651 -1.81,-0.342 -3.632,-0.624 -5.453,-0.903 -0.676,-0.103 -1.111,-0.31 -1.326,-1.09 -2.834,-10.311 -7.042,-20.057 -12.236,-29.386 -0.376,-0.677 -0.422,-1.129 0.084,-1.783 1.235,-1.598 2.362,-3.28 3.553,-4.956 -2.82,-4.164 -5.617,-8.313 -8.457,-12.432 -0.167,-0.242 -0.721,-0.39 -1.04,-0.323 -1.836,0.386 -3.65,0.877 -5.486,1.26 -0.319,0.066 -0.852,-0.107 -1.05,-0.356 -6.718,-8.47 -14.322,-16.045 -22.852,-22.687 -0.46,-0.358 -0.576,-0.674 -0.418,-1.257 0.481,-1.777 0.903,-3.571 1.278,-5.374 0.075,-0.362 -0.022,-0.981 -0.27,-1.156 -4.08,-2.888 -8.197,-5.724 -12.295,-8.563 -1.921,1.371 -3.693,2.606 -5.427,3.892 -0.499,0.371 -0.852,0.386 -1.404,0.077 -8.602,-4.815 -17.641,-8.615 -27.049,-11.546 -0.507,-0.158 -1.015,-0.382 -1.534,-0.42 -1.51,-0.108 -1.94,-0.997 -2.073,-2.365 -0.159,-1.654 -0.497,-3.294 -0.835,-4.924 -0.064,-0.309 -0.45,-0.726 -0.749,-0.787 -4.686,-0.958 -9.384,-1.862 -14.076,-2.791 -0.602,-0.119 -0.977,0.045 -1.3,0.594 -0.935,1.591 -1.973,3.122 -2.876,4.73 -0.418,0.747 -0.907,0.939 -1.71,0.836 -5.857,-0.756 -11.745,-1.049 -17.64,-0.832 -4.643,0.172 -9.278,0.553 -13.911,0.91 -0.625,0.048 -0.894,-0.123 -1.175,-0.592 -1.023,-1.704 -2.09,-3.382 -3.098,-5.095 -0.304,-0.516 -0.631,-0.645 -1.209,-0.531 -4.693,0.929 -9.39,1.837 -14.091,2.73 -0.533,0.101 -0.758,0.307 -0.843,0.872 -0.292,1.963 -0.722,3.907 -0.967,5.874 -0.098,0.786 -0.416,1.077 -1.113,1.279 -9.124,2.636 -17.87,6.221 -26.306,10.574 -0.945,0.488 -1.872,1.019 -2.774,1.582 -0.559,0.349 -0.983,0.339 -1.531,-0.067 -1.764,-1.311 -3.572,-2.563 -5.43,-3.884 -2.362,1.548 -4.733,3.101 -7.104,4.656 -1.84,1.207 -3.667,2.434 -5.526,3.611 -0.546,0.346 -0.667,0.709 -0.508,1.32 0.499,1.92 0.929,3.858 1.419,5.781 0.167,0.656 0.048,1.057 -0.532,1.515 -8.194,6.485 -15.51,13.854 -21.987,22.052 -0.434,0.55 -0.799,0.633 -1.427,0.47 -1.956,-0.507 -3.921,-0.981 -5.898,-1.391 -0.359,-0.075 -0.975,0.083 -1.166,0.351 -2.87,4.051 -5.689,8.138 -8.516,12.212 1.461,2.04 2.781,3.924 4.151,5.771 0.432,0.584 0.496,1.021 0.119,1.705 -4.981,9.037 -9.033,18.468 -11.833,28.414 -0.241,0.856 -0.567,1.268 -1.534,1.378 -2.04,0.232 -4.053,0.688 -6.086,0.993 -0.604,0.09 -0.831,0.343 -0.944,0.92 -0.893,4.592 -1.813,9.178 -2.73,13.766 -0.147,0.736 0.032,1.242 0.746,1.649 1.757,1 3.454,2.107 5.199,3.129 0.563,0.331 0.76,0.681 0.677,1.362 -0.784,6.39 -1.054,12.812 -0.858,19.241 0.117,3.826 0.488,7.646 0.797,11.465 0.072,0.887 0,1.498 -0.906,1.986 -1.716,0.924 -3.332,2.033 -5.02,3.012 -0.593,0.344 -0.762,0.754 -0.637,1.39 0.926,4.693 1.824,9.392 2.795,14.075 0.069,0.331 0.628,0.721 1.014,0.796 1.949,0.377 3.914,0.671 5.877,0.966 0.793,0.119 1.23,0.399 1.489,1.293 2.886,9.982 6.727,19.578 11.848,28.636 0.366,0.648 0.362,1.081 -0.096,1.689 -1.364,1.811 -2.648,3.682 -3.965,5.532 z" /></g></g></g><g
   id="g188"><g
     clip-path="url(#clipPath194)"
     id="g190"><g
       transform="translate(318.598,557.5885)"
       id="g196"><path
         id="path198"
         style="fill:#ffffff;fill-opacity:1;fill-rule:nonzero;stroke:none"
         d="M 0,0 V 10.29 C 2.969,8.581 5.837,6.931 8.92,5.157 5.892,3.407 3.009,1.74 0,0" /></g></g></g><g
   id="g200"><g
     clip-path="url(#clipPath206)"
     id="g202"><g
       transform="translate(362.3354,480.3415)"
       id="g208"><path
         id="path210"
         style="fill:#231f20;fill-opacity:1;fill-rule:nonzero;stroke:none"
         d="m 0,0 c -0.129,0.002 -0.257,0.004 -0.386,0.007 -0.207,-0.268 -0.606,-0.557 -0.571,-0.797 0.039,-0.27 0.47,-0.496 0.731,-0.741 0.275,0.235 0.721,0.446 0.773,0.715 C 0.593,-0.578 0.199,-0.275 0,0 M 4.355,-5.905 3.986,-5.906 C 3.77,-6.178 3.358,-6.47 3.393,-6.715 c 0.036,-0.262 0.456,-0.613 0.776,-0.682 0.477,-0.102 0.839,0.252 0.767,0.669 -0.05,0.294 -0.377,0.55 -0.581,0.823 m -102.876,-1.01 c 0.005,0.108 0.01,0.217 0.016,0.325 -0.302,0.191 -0.579,0.488 -0.911,0.548 -0.478,0.087 -0.799,-0.203 -0.822,-0.649 -0.024,-0.449 0.277,-0.759 0.755,-0.711 0.337,0.034 0.642,0.316 0.962,0.487 m 29.989,-0.01 c 0.004,0.114 0.009,0.228 0.013,0.342 -0.3,0.188 -0.621,0.545 -0.893,0.519 -0.308,-0.031 -0.572,-0.406 -0.855,-0.631 0.262,-0.244 0.493,-0.638 0.797,-0.689 0.27,-0.045 0.622,0.292 0.938,0.459 m -57.383,5.969 c 0,0.106 -10e-4,0.212 -10e-4,0.318 -0.313,0.177 -0.607,0.459 -0.943,0.505 -0.481,0.067 -0.873,-0.254 -0.752,-0.674 0.08,-0.28 0.481,-0.649 0.775,-0.676 0.283,-0.026 0.612,0.336 0.921,0.527 m 43.077,25.438 c -0.014,0.602 -0.536,1.051 -1.213,1.044 -0.656,-0.007 -1.202,-0.491 -1.206,-1.069 -0.003,-0.6 0.592,-1.107 1.271,-1.082 0.657,0.024 1.162,0.512 1.148,1.107 M -90.762,10.533 V 8.285 h 4.433 c -1.561,0.791 -2.951,1.496 -4.433,2.248 m 11.421,-36.544 h 1.866 v 3.083 h -1.866 z m -6.203,-0.002 h 1.876 v 3.072 h -1.876 z m 1.874,-29.637 h -1.861 v -3.118 h 1.861 z m 4.323,-3.085 h 1.86 v 3.096 h -1.86 z m -12.397,32.713 h 1.908 v 3.087 h -1.908 z m -7.392,3.084 h -1.93 v -3.068 h 1.93 z m 4.208,-3.054 h 1.982 v 3.089 c -0.545,0 -1.045,0.03 -1.537,-0.016 -0.16,-0.016 -0.421,-0.223 -0.426,-0.349 -0.037,-0.899 -0.019,-1.8 -0.019,-2.724 m 18.64,-0.006 h 1.954 v 3.052 h -1.954 z m -21.661,0.003 h 1.924 v 3.056 h -1.924 z m 17.43,3.036 h -1.967 v -3.03 h 1.967 z m -6.215,0.014 h -1.941 v -3.057 h 1.941 z m -14.333,-35.79 h 1.901 v 3.087 h -1.901 z m 9.316,-0.016 h 1.909 v 3.105 h -1.909 z m 3.082,0.013 h 1.913 v 3.093 h -1.913 z m 6.199,-10e-4 h 1.92 v 3.094 h -1.92 z m -10.487,-0.025 v 3.152 c -0.556,0 -1.056,0.024 -1.549,-0.014 -0.149,-0.012 -0.397,-0.192 -0.4,-0.301 -0.032,-0.941 -0.019,-1.883 -0.019,-2.837 z m -3.015,0.002 c 0,0.587 0,1.116 0,1.645 0,1.623 0,1.623 -1.841,1.48 -0.046,-0.003 -0.088,-0.046 -0.145,-0.077 v -3.048 z m 19.679,0.025 h 1.971 v 3.071 h -1.971 z m -12,39.355 c -1.689,-0.859 -3.245,-1.65 -4.983,-2.534 h 4.983 z m 1.161,-2.523 h 4.999 c -1.784,0.899 -3.358,1.692 -4.999,2.518 z m -1.166,-30.212 c -1.67,-0.848 -3.23,-1.64 -4.993,-2.535 h 4.993 z m 1.155,-2.531 h 4.773 c 0.012,0.036 0.024,0.072 0.036,0.108 -1.578,0.798 -3.156,1.597 -4.809,2.433 z m 6.139,44.027 h -5.101 c 1.797,-0.909 3.408,-1.724 5.101,-2.58 z m -13.413,-2.589 c 1.717,0.871 3.331,1.689 5.13,2.602 h -5.13 z m -28.446,11.906 c -1.155,0.038 -2.226,0.298 -2.832,-0.745 -0.043,-0.074 -0.192,-0.096 -0.246,-0.168 -0.144,-0.192 -0.352,-0.391 -0.373,-0.6 -0.053,-0.53 -0.018,-1.068 -0.018,-1.603 0,-0.625 0,-1.25 0,-1.875 0.061,-0.005 0.122,-0.011 0.183,-0.017 1.075,1.639 2.151,3.278 3.286,5.008 m 34.555,-32.331 v 2.962 h -5.838 c 2.048,-1.039 3.892,-1.975 5.838,-2.962 m 1.201,2.997 v -3.002 c 1.95,0.992 3.811,1.939 5.672,2.886 -0.022,0.038 -0.044,0.077 -0.066,0.116 z m -6.844,-32.728 c -0.024,-0.034 -0.048,-0.069 -0.071,-0.103 1.888,-0.956 3.777,-1.911 5.718,-2.894 v 2.997 z m 6.819,0.003 v -3.018 c 1.965,0.998 3.847,1.955 5.73,2.913 -0.023,0.035 -0.047,0.07 -0.07,0.105 z m -14.334,56.674 c 0.299,0.442 0.561,0.811 0.797,1.191 0.065,0.104 0.121,0.278 0.067,0.364 -0.783,1.22 -1.585,2.43 -2.445,3.738 -1.194,-1.819 -2.308,-3.519 -3.472,-5.293 z m 98.021,-0.012 h 5.676 c 0.476,1.245 0.476,1.245 -0.228,2.319 -0.369,0.564 -0.734,1.131 -1.113,1.691 -0.294,0.435 -1.389,0.457 -1.688,0.013 -0.874,-1.297 -1.72,-2.609 -2.647,-4.023 m -61.711,5.307 c -0.771,-1.177 -1.428,-2.259 -2.177,-3.29 -0.49,-0.674 -0.772,-1.296 -0.129,-2.006 h 5.778 c -1.161,1.772 -2.276,3.472 -3.472,5.296 M -94.284,-46.97 c 2.062,-1.044 3.994,-2.022 5.964,-3.019 v 6.043 c -1.999,-1.014 -3.915,-1.985 -5.964,-3.024 m -0.003,8.182 c 2.059,-1.041 3.989,-2.018 5.976,-3.024 v 6.051 c -2.006,-1.016 -3.919,-1.985 -5.976,-3.027 m 6.002,-29.688 c -2.046,-1.038 -3.971,-2.016 -5.999,-3.045 2.059,-1.04 3.986,-2.014 5.999,-3.031 z m -0.01,57.276 c -2.046,-1.039 -3.962,-2.012 -5.985,-3.039 2.034,-1.031 3.969,-2.013 5.985,-3.035 z m 83.675,4.615 c 1.013,1.542 1.945,2.946 2.857,4.36 0.256,0.398 -0.069,0.941 -0.575,0.945 -1.87,0.018 -3.74,0.007 -5.767,0.007 1.184,-1.804 2.296,-3.499 3.485,-5.312 m -76.504,-32.201 c -2.069,1.047 -3.996,2.021 -5.983,3.026 v -6.058 c 2.008,1.017 3.923,1.988 5.983,3.032 m -0.005,-8.182 c -2.05,1.038 -3.989,2.02 -5.998,3.038 v -6.082 c 2.019,1.024 3.956,2.007 5.998,3.044 m -6.006,-27.597 c 2.027,1.029 3.968,2.016 6.007,3.051 -2.076,1.05 -4.007,2.026 -6.007,3.037 z m 0.015,63.363 v -6.077 c 2.018,1.026 3.949,2.007 5.987,3.043 -2.052,1.04 -3.984,2.019 -5.987,3.034 m 2.458,19.738 v 6.091 c -2.024,-1.026 -3.957,-2.006 -6.005,-3.044 2.058,-1.044 3.992,-2.025 6.005,-3.047 m -23.04,-15.119 c 1.191,1.815 2.309,3.517 3.461,5.272 h -6.923 c 1.165,-1.775 2.277,-3.468 3.462,-5.272 m 75.142,-10e-4 c 1.189,1.812 2.301,3.506 3.456,5.266 h -6.915 c 1.157,-1.761 2.263,-3.445 3.459,-5.266 m -87.935,5.291 c 1.187,-1.803 2.301,-3.496 3.481,-5.289 1.196,1.822 2.311,3.521 3.471,5.289 z m 59.997,-5.29 c 1.183,1.804 2.306,3.516 3.452,5.264 h -6.914 c 1.167,-1.775 2.285,-3.474 3.462,-5.264 m 33.784,5.279 c 1.175,-1.788 2.29,-3.486 3.469,-5.279 1.187,1.807 2.303,3.506 3.467,5.279 z m 16.251,-10e-4 h -6.934 c 1.163,-1.773 2.277,-3.471 3.463,-5.278 1.178,1.791 2.293,3.488 3.471,5.278 m -40.721,-5.282 c 1.196,1.825 2.306,3.519 3.445,5.257 h -6.901 c 1.161,-1.765 2.267,-3.448 3.456,-5.257 m 5.841,5.284 c 1.172,-1.782 2.295,-3.487 3.475,-5.279 1.195,1.823 2.31,3.523 3.461,5.279 z m -70.479,-5.37 h 6.928 c -1.171,1.783 -2.288,3.481 -3.467,5.276 -1.193,-1.819 -2.31,-3.521 -3.461,-5.276 m 59.978,5.276 c -1.187,-1.809 -2.313,-3.525 -3.461,-5.276 h 6.927 c -1.171,1.782 -2.289,3.485 -3.466,5.276 m 18.625,0.001 c -1.186,-1.81 -2.312,-3.529 -3.457,-5.277 h 6.928 c -1.172,1.782 -2.293,3.486 -3.471,5.277 m 18.629,-0.001 c -1.185,-1.805 -2.312,-3.521 -3.469,-5.284 h 6.941 c -1.169,1.78 -2.289,3.484 -3.472,5.284 m 5.849,-5.275 h 6.932 c -1.167,1.774 -2.282,3.469 -3.467,5.273 -1.19,-1.811 -2.304,-3.506 -3.465,-5.273 m -72.021,22.347 c -2.076,1.051 -4.005,2.028 -5.986,3.031 V 12.64 c 2.014,1.021 3.926,1.99 5.986,3.035 m -33.421,-22.379 c -1.191,1.811 -2.312,3.514 -3.492,5.306 -1.186,-1.808 -2.312,-3.525 -3.48,-5.306 z m 86.811,0.026 h 6.942 c -1.174,1.783 -2.296,3.486 -3.477,5.279 -1.198,-1.826 -2.304,-3.51 -3.465,-5.279 m -49.636,-41.327 c -2.03,-1.031 -3.972,-2.017 -6.024,-3.059 2.069,-1.047 4.001,-2.026 6.024,-3.05 z m 31.004,41.321 h 6.95 c -1.172,1.78 -2.294,3.485 -3.479,5.283 -1.196,-1.82 -2.302,-3.504 -3.471,-5.283 m -31.013,-14.698 v 6.102 c -2.023,-1.026 -3.952,-2.005 -6.013,-3.049 2.052,-1.042 3.981,-2.021 6.013,-3.053 m -0.018,-49.082 v 6.082 c -2.024,-1.029 -3.956,-2.012 -5.994,-3.048 2.057,-1.041 3.993,-2.022 5.994,-3.034 m 0.667,76.409 H -86.97 V 3.262 h 6.602 z m -0.624,-78.49 c -2.066,-1.049 -3.998,-2.03 -6.039,-3.066 2.063,-1.046 4.011,-2.032 6.039,-3.06 z m -0.03,34.801 v 6.097 c -2.026,-1.028 -3.961,-2.009 -6.009,-3.047 2.046,-1.039 3.981,-2.021 6.009,-3.05 m -6.012,-5.136 c 2.077,-1.052 4.012,-2.032 6.008,-3.043 v 6.091 c -2.027,-1.028 -3.96,-2.009 -6.008,-3.048 m -1.338,0.001 c -2.07,1.047 -4.019,2.032 -6.032,3.05 v -6.104 c 2.026,1.026 3.964,2.007 6.032,3.054 m -6.058,-27.617 c 2.073,1.053 4.021,2.042 6.051,3.072 -2.062,1.044 -4.014,2.032 -6.051,3.063 z m 6.054,19.434 c -2.063,1.045 -4.003,2.029 -6.031,3.058 v -6.113 c 2.035,1.031 3.97,2.011 6.031,3.055 m 0.004,-24.546 c -2.075,1.049 -4.008,2.026 -6.028,3.047 v -6.101 c 2.035,1.031 3.972,2.012 6.028,3.054 m -6.036,43.969 v -6.111 c 2.052,1.04 4.001,2.028 6.03,3.056 -2.054,1.041 -3.991,2.022 -6.03,3.055 m 0.003,16.362 v -6.108 c 2.048,1.038 3.991,2.024 6.028,3.057 -2.062,1.043 -3.994,2.021 -6.028,3.051 m 3.737,35.04 c 2.064,-1.044 4.006,-2.027 6.031,-3.052 v 5.397 c -0.451,0.115 -1.058,0.458 -1.344,0.312 -1.569,-0.798 -3.059,-1.716 -4.687,-2.657 m 17.323,-20.762 c -1.981,2.348 -3.851,4.564 -5.819,6.896 v -6.896 z m -7.007,3.259 h -6.631 v -3.261 h 6.631 z m -7.934,-78.917 c -2.017,-1.026 -3.915,-1.984 -5.802,-2.959 -0.158,-0.081 -0.345,-0.268 -0.348,-0.409 -0.026,-1.296 -0.016,-2.593 -0.016,-3.909 h 6.166 z m 7.322,-7.296 c 0,1.271 -0.021,2.459 0.012,3.645 0.012,0.414 -0.17,0.626 -0.563,0.814 -1,0.478 -1.975,0.994 -2.962,1.493 -0.862,0.435 -1.725,0.868 -2.643,1.329 v -7.281 z m -43.842,83.791 c 0.012,-0.051 0.024,-0.102 0.036,-0.153 h 0.769 c 6.687,0 13.374,-0.021 20.06,0.023 1.047,0.007 1.698,-0.2 2.151,-1.076 0.471,-0.913 1.129,-1.751 1.705,-2.623 l 0.183,0.048 V 8.236 h 7.965 v 10.988 c -11.02,-6.5 -21.944,-12.943 -32.869,-19.386 m 41.32,8.384 c 1.757,0 3.428,-0.019 5.098,0.011 0.509,0.009 0.82,-0.132 1.119,-0.49 1.94,-2.334 3.811,-4.719 5.894,-6.951 1.441,-1.544 2.288,-3.133 1.911,-5.139 -0.013,-0.068 -0.025,-0.148 0.003,-0.208 0.087,-0.193 0.193,-0.378 0.292,-0.567 0.188,0.125 0.443,0.215 0.554,0.38 0.829,1.22 1.665,2.437 2.421,3.692 0.344,0.57 0.753,0.751 1.482,0.75 19.881,-0.019 39.763,-0.015 59.645,-0.016 0.395,0 0.789,0 1.183,0 -0.196,0.195 -0.389,0.261 -0.584,0.32 -18.745,5.643 -37.49,11.285 -56.235,16.927 -6.757,2.035 -13.513,4.073 -20.275,6.096 -0.249,0.075 -0.621,0.091 -0.825,-0.021 -0.568,-0.312 -1.077,-0.707 -1.683,-1.118 z m 6.612,-15.906 c 0,-0.796 -0.036,-1.515 0.012,-2.229 0.036,-0.538 -0.196,-0.694 -0.778,-0.664 -0.711,0.038 -1.427,0.009 -2.188,0.009 v -11.369 h 6.559 v -5.065 h -3.596 v -3.602 h -2.962 v -24.067 h 6.555 v -5.07 h -3.583 v -3.551 h -2.957 v -20.683 h 2.929 c 0,-1.275 0.008,-2.482 -0.015,-3.688 -0.002,-0.105 -0.189,-0.246 -0.327,-0.301 -0.133,-0.052 -0.313,-0.017 -0.472,-0.017 -6.663,0 -13.327,10e-4 -19.99,0.003 -0.236,0 -0.471,0.02 -0.76,0.033 v 3.939 h 2.905 v 20.65 h -2.927 v 3.574 h -3.648 v 5.045 h 6.545 v 24.108 h -2.924 v 3.603 h -3.615 v 5.06 h 6.56 v 11.381 h -2.941 v 2.397 c -0.938,-0.229 -1.703,-0.165 -2.383,0.393 -0.169,0.138 -0.548,0.107 -0.83,0.107 -8.203,0.005 -16.407,0.004 -24.61,0.004 h -1.016 c -0.021,0.301 -0.05,0.548 -0.051,0.795 -0.005,1.119 -0.003,2.239 -10e-4,3.359 0.002,0.616 0.094,1.181 -0.73,1.597 -0.709,0.358 -0.748,1.315 -0.311,1.958 0.45,0.662 1.383,0.982 2.2,0.662 0.461,-0.181 0.766,-0.106 1.149,0.121 12.63,7.46 25.265,14.913 37.907,22.355 0.41,0.242 0.537,0.468 0.443,0.903 -0.288,1.333 0.782,2.605 2.287,2.787 1.554,0.188 3.019,-0.78 3.125,-2.16 0.039,-0.508 0.283,-0.645 0.748,-0.785 C -54.48,16.067 -28.398,8.216 -2.309,0.383 -2.026,0.298 -1.597,0.357 -1.335,0.494 -0.627,0.865 0.052,0.946 0.759,0.556 1.471,0.163 1.65,-0.426 1.59,-1.137 1.561,-1.473 1.626,-1.859 1.799,-2.154 2.297,-3.002 2.883,-3.809 3.412,-4.643 3.604,-4.947 3.795,-5.107 4.25,-5.117 5.12,-5.137 5.756,-5.655 5.962,-6.358 6.143,-6.978 5.816,-7.694 5.181,-8.066 4.506,-8.462 3.723,-8.385 2.955,-7.949 2.652,-7.777 2.23,-7.695 1.862,-7.695 c -16.938,0.012 -33.875,0.011 -50.813,0.011 -6.079,0 -12.159,0.006 -18.238,-0.014 -0.383,-10e-4 -0.808,-0.14 -1.138,-0.321 -0.713,-0.39 -1.515,-0.391 -2.238,0.01 -0.311,0.172 -0.709,0.304 -1.071,0.311 -1.717,0.031 -3.435,0.014 -5.238,0.014" /></g></g></g><g
   id="g212"><g
     clip-path="url(#clipPath218)"
     id="g214"><g
       transform="translate(241.6092,331.1474)"
       id="g220"><path
         id="path222"
         style="fill:#00adef;fill-opacity:1;fill-rule:nonzero;stroke:#231f20;stroke-width:2;stroke-linecap:butt;stroke-linejoin:miter;stroke-miterlimit:10;stroke-dasharray:none;stroke-opacity:1"
         d="M 0,0 V 56.281" /></g><g
       transform="translate(274.7311,331.1474)"
       id="g224"><path
         id="path226"
         style="fill:#00adef;fill-opacity:1;fill-rule:nonzero;stroke:#231f20;stroke-width:5;stroke-linecap:butt;stroke-linejoin:miter;stroke-miterlimit:10;stroke-dasharray:none;stroke-opacity:1"
         d="M 0,0 V 73.078" /></g><g
       transform="translate(240.9376,386.7705)"
       id="g228"><path
         id="path230"
         style="fill:#00adef;fill-opacity:1;fill-rule:nonzero;stroke:#231f20;stroke-width:2;stroke-linecap:butt;stroke-linejoin:miter;stroke-miterlimit:10;stroke-dasharray:none;stroke-opacity:1"
         d="M 0,0 31.954,16.436" /></g><g
       transform="translate(323.0859,331.1474)"
       id="g232"><path
         id="path234"
         style="fill:#00adef;fill-opacity:1;fill-rule:nonzero;stroke:none"
         d="M 0,0 V 85.551 Z" /></g><g
       transform="translate(323.0859,331.1474)"
       id="g236"><path
         id="path238"
         style="fill:none;stroke:#231f20;stroke-width:2;stroke-linecap:butt;stroke-linejoin:miter;stroke-miterlimit:10;stroke-dasharray:none;stroke-opacity:1"
         d="M 0,0 V 85.551 Z" /></g><g
       transform="translate(358.7046,331.4744)"
       id="g240"><path
         id="path242"
         style="fill:#00adef;fill-opacity:1;fill-rule:nonzero;stroke:none"
         d="M 0,0 V 109.083 Z" /></g><g
       transform="translate(358.7046,331.4744)"
       id="g244"><path
         id="path246"
         style="fill:none;stroke:#231f20;stroke-width:5;stroke-linecap:butt;stroke-linejoin:miter;stroke-miterlimit:10;stroke-dasharray:none;stroke-opacity:1"
         d="M 0,0 V 109.083 Z" /></g><g
       transform="translate(322.6026,415.8236)"
       id="g248"><path
         id="path250"
         style="fill:#00adef;fill-opacity:1;fill-rule:nonzero;stroke:none"
         d="M 0,0 34.208,23.781 Z" /></g><g
       transform="translate(322.6026,415.8236)"
       id="g252"><path
         id="path254"
         style="fill:none;stroke:#231f20;stroke-width:2;stroke-linecap:butt;stroke-linejoin:miter;stroke-miterlimit:10;stroke-dasharray:none;stroke-opacity:1"
         d="M 0,0 34.208,23.781 Z" /></g><g
       transform="translate(259.961,426.1875)"
       id="g256"><path
         id="path258"
         style="fill:none;stroke:#231f20;stroke-width:2;stroke-linecap:butt;stroke-linejoin:miter;stroke-miterlimit:10;stroke-dasharray:none;stroke-opacity:1"
         d="M 0,0 V -30.294" /></g><g
       transform="translate(259.3686,425.2219)"
       id="g260"><path
         id="path262"
         style="fill:none;stroke:#231f20;stroke-width:2;stroke-linecap:butt;stroke-linejoin:miter;stroke-miterlimit:10;stroke-dasharray:none;stroke-opacity:1"
         d="M 0,0 H 41.783" /></g><g
       transform="translate(301.1515,426.0833)"
       id="g264"><path
         id="path266"
         style="fill:none;stroke:#231f20;stroke-width:6;stroke-linecap:butt;stroke-linejoin:miter;stroke-miterlimit:10;stroke-dasharray:none;stroke-opacity:1"
         d="M 0,0 V -95.37" /></g><g
       transform="translate(288.9366,425.7971)"
       id="g268"><path
         id="path270"
         style="fill:none;stroke:#231f20;stroke-width:2;stroke-linecap:butt;stroke-linejoin:miter;stroke-miterlimit:10;stroke-dasharray:none;stroke-opacity:1"
         d="M 0,0 -0.234,20.718" /></g><g
       transform="translate(288.0056,445.396)"
       id="g272"><path
         id="path274"
         style="fill:none;stroke:#231f20;stroke-width:2;stroke-linecap:butt;stroke-linejoin:miter;stroke-miterlimit:10;stroke-dasharray:none;stroke-opacity:1"
         d="M 0,0 H 46.723" /></g><g
       transform="translate(334.0455,446.4705)"
       id="g276"><path
         id="path278"
         style="fill:none;stroke:#231f20;stroke-width:2;stroke-linecap:butt;stroke-linejoin:miter;stroke-miterlimit:10;stroke-dasharray:none;stroke-opacity:1"
         d="M 0,0 V -23.184" /></g><g
       transform="translate(279.7317,503.2278)"
       id="g280"><path
         id="path282"
         style="fill:none;stroke:#231f20;stroke-width:1;stroke-linecap:butt;stroke-linejoin:miter;stroke-miterlimit:10;stroke-dasharray:none;stroke-opacity:1"
         d="M 0,0 51.694,-23.731" /></g><g
       transform="translate(246.2407,331.4744)"
       id="g284"><path
         id="path286"
         style="fill:none;stroke:#00adef;stroke-width:2;stroke-linecap:butt;stroke-linejoin:miter;stroke-miterlimit:10;stroke-dasharray:none;stroke-opacity:1"
         d="M 0,0 -0.175,49.232" /></g><g
       transform="translate(250.7563,331.4744)"
       id="g288"><path
         id="path290"
         style="fill:none;stroke:#00adef;stroke-width:2;stroke-linecap:butt;stroke-linejoin:miter;stroke-miterlimit:10;stroke-dasharray:none;stroke-opacity:1"
         d="M 0,0 -0.175,52.71" /></g><g
       transform="translate(255.2215,331.4744)"
       id="g292"><path
         id="path294"
         style="fill:none;stroke:#00adef;stroke-width:2;stroke-linecap:butt;stroke-linejoin:miter;stroke-miterlimit:10;stroke-dasharray:none;stroke-opacity:1"
         d="M 0,0 -0.175,55.954" /></g><g
       transform="translate(327.2504,331.4744)"
       id="g296"><path
         id="path298"
         style="fill:none;stroke:#00adef;stroke-width:2;stroke-linecap:butt;stroke-linejoin:miter;stroke-miterlimit:10;stroke-dasharray:none;stroke-opacity:1"
         d="M 0,0 -0.175,77.767" /></g><g
       transform="translate(331.7583,331.7169)"
       id="g300"><path
         id="path302"
         style="fill:none;stroke:#00adef;stroke-width:2;stroke-linecap:butt;stroke-linejoin:miter;stroke-miterlimit:10;stroke-dasharray:none;stroke-opacity:1"
         d="M 0,0 -0.175,81.27" /></g><g
       transform="translate(336.4234,331.4744)"
       id="g304"><path
         id="path306"
         style="fill:none;stroke:#00adef;stroke-width:2;stroke-linecap:butt;stroke-linejoin:miter;stroke-miterlimit:10;stroke-dasharray:none;stroke-opacity:1"
         d="M 0,0 -0.175,86.06" /></g><g
       transform="translate(341.5195,331.4744)"
       id="g308"><path
         id="path310"
         style="fill:none;stroke:#00adef;stroke-width:2;stroke-linecap:butt;stroke-linejoin:miter;stroke-miterlimit:10;stroke-dasharray:none;stroke-opacity:1"
         d="M 0,0 -0.175,90.162" /></g><g
       transform="translate(259.4859,331.4744)"
       id="g312"><path
         id="path314"
         style="fill:none;stroke:#00adef;stroke-width:2;stroke-linecap:butt;stroke-linejoin:miter;stroke-miterlimit:10;stroke-dasharray:none;stroke-opacity:1"
         d="M 0,0 -0.175,59.13" /></g><path
       id="path316"
       style="fill:none;stroke:#231f20;stroke-width:2;stroke-linecap:butt;stroke-linejoin:miter;stroke-miterlimit:10;stroke-dasharray:none;stroke-opacity:1"
       d="M 360.208,326.835 H 241.61 v 4.312 h 118.598 z" /><g
       transform="translate(350.1476,456.5738)"
       id="g318"><path
         id="path320"
         style="fill:#ffffff;fill-opacity:1;fill-rule:nonzero;stroke:none"
         d="m 0,0 c 0,-0.662 -0.017,-1.305 0.007,-1.946 0.012,-0.342 -0.089,-0.515 -0.449,-0.668 -1.367,-0.584 -2.117,-1.625 -2.148,-3.038 -0.032,-1.391 0.642,-2.468 1.963,-3.105 1.321,-0.636 2.617,-0.503 3.811,0.323 1.079,0.746 1.364,1.817 1.343,3.02 -0.006,0.328 0.138,0.657 0.201,0.987 0.029,0.155 0.03,0.314 0.043,0.472 C 4.599,-3.989 4.384,-3.972 4.263,-4.065 3.784,-4.434 3.315,-4.82 2.884,-5.238 2.725,-5.393 2.633,-5.647 2.594,-5.868 2.443,-6.739 1.622,-7.356 0.772,-7.205 c -0.739,0.131 -1.259,0.637 -1.326,1.289 -0.076,0.74 0.283,1.327 1.031,1.593 0.867,0.309 1.439,0.865 1.514,1.736 C 2.064,-1.74 2.006,-0.883 2.006,0 Z m -2.632,16.622 c 0,-1.857 0.003,-3.659 -10e-4,-5.461 C -2.634,10.695 -2.673,10.229 -2.656,9.765 -2.636,9.202 -2.573,8.64 -2.531,8.078 -2.512,7.83 -2.442,7.572 -2.49,7.336 -2.663,6.482 -2.894,5.639 -3.064,4.786 -3.107,4.573 -3.069,4.301 -2.96,4.112 -2.411,3.165 -1.824,2.237 -1.256,1.3 -1.157,1.137 -1.046,0.967 -1.01,0.787 -0.941,0.442 -0.748,0.311 -0.384,0.317 0.41,0.33 1.205,0.326 1.999,0.318 2.475,0.314 2.974,0.259 2.925,0.945 2.922,0.979 2.974,1.016 2.998,1.054 3.5,1.853 3.948,2.688 4.519,3.44 5.045,4.134 5.046,4.797 4.837,5.583 4.565,6.607 4.148,7.642 4.599,8.735 4.691,8.957 4.632,9.238 4.624,9.492 4.61,9.957 4.565,10.422 4.563,10.887 4.556,12.615 4.56,14.344 4.56,16.072 v 0.545 H 4.103 v -5.488 c -0.718,0.675 -0.751,0.67 -0.897,1.483 -0.072,0.397 -0.252,0.469 -0.629,0.461 -1.08,-0.02 -2.161,-0.005 -3.241,-0.007 -0.169,-0.001 -0.338,-0.017 -0.517,-0.026 -0.111,-0.743 -0.266,-1.424 -0.991,-1.885 v 5.467 z" /></g><g
       transform="translate(351.774,458.0605)"
       id="g322"><path
         id="path324"
         style="fill:#231f20;fill-opacity:1;fill-rule:nonzero;stroke:none"
         d="M 0,0 C 0.297,0 0.563,-0.02 0.824,0.008 0.976,0.024 1.189,0.077 1.256,0.182 1.762,0.968 2.239,1.77 2.752,2.612 1.823,1.73 0.938,0.891 0,0 m 0.531,11.144 c -0.874,0.183 -1.635,0.045 -2.192,-0.706 -0.17,-0.229 -0.398,-0.433 -0.636,-0.601 -0.828,-0.584 -0.716,-1.484 -0.948,-2.254 1.267,1.194 2.524,2.38 3.776,3.561 M 2.419,5.243 C 0.737,3.641 -0.964,2.019 -2.686,0.378 c 0.23,-0.476 0.803,-0.572 1.263,-0.139 1.111,1.047 2.187,2.13 3.339,3.135 0.639,0.557 1.01,1.091 0.503,1.869 M 1.317,10.217 C 1.208,10.137 1.129,10.091 1.065,10.031 -0.474,8.577 -2.012,7.123 -3.548,5.666 -3.635,5.582 -3.736,5.483 -3.763,5.377 c -0.138,-0.548 -0.254,-1.1 -0.381,-1.67 0.072,0.019 0.111,0.017 0.13,0.035 1.81,1.707 3.62,3.414 5.419,5.13 0.094,0.09 0.149,0.27 0.132,0.396 -0.041,0.305 -0.136,0.604 -0.22,0.949 M -3.328,1.406 C -1.72,2.93 -0.176,4.396 1.373,5.858 2.177,6.618 2.181,6.615 1.91,7.663 1.904,7.687 1.872,7.704 1.887,7.689 -0.026,5.886 -1.937,4.084 -3.866,2.265 -3.713,2.02 -3.538,1.74 -3.328,1.406 m -0.93,13.729 h 0.46 V 9.668 c 0.725,0.461 0.879,1.142 0.991,1.885 0.178,0.009 0.347,0.026 0.516,0.026 1.081,0.002 2.162,-0.013 3.242,0.008 0.377,0.007 0.557,-0.065 0.629,-0.462 0.146,-0.813 0.179,-0.808 0.897,-1.483 v 5.489 H 2.934 V 14.585 C 2.934,12.857 2.929,11.129 2.937,9.4 2.939,8.935 2.983,8.47 2.998,8.005 3.005,7.752 3.065,7.47 2.973,7.248 2.521,6.155 2.938,5.121 3.211,4.096 3.42,3.31 3.419,2.647 2.892,1.954 2.321,1.202 1.873,0.366 1.371,-0.433 1.348,-0.47 1.296,-0.507 1.299,-0.542 1.348,-1.228 0.849,-1.173 0.373,-1.168 c -0.795,0.007 -1.589,0.011 -2.384,-0.002 -0.363,-0.006 -0.556,0.125 -0.626,0.471 -0.036,0.179 -0.146,0.349 -0.245,0.512 -0.568,0.938 -1.156,1.865 -1.705,2.813 -0.109,0.188 -0.146,0.46 -0.104,0.673 0.171,0.854 0.401,1.697 0.575,2.55 0.048,0.236 -0.022,0.495 -0.041,0.742 -0.043,0.563 -0.105,1.124 -0.126,1.687 -0.017,0.464 0.023,0.931 0.024,1.396 0.003,1.802 0.001,3.605 0.001,5.461" /></g><g
       transform="translate(350.1476,456.5738)"
       id="g326"><path
         id="path328"
         style="fill:#231f20;fill-opacity:1;fill-rule:nonzero;stroke:none"
         d="m 0,0 h 2.006 c 0,-0.883 0.058,-1.74 -0.015,-2.587 -0.075,-0.871 -0.647,-1.427 -1.514,-1.736 -0.748,-0.266 -1.107,-0.853 -1.031,-1.593 0.067,-0.652 0.587,-1.158 1.326,-1.289 0.85,-0.151 1.671,0.466 1.822,1.337 0.039,0.221 0.131,0.475 0.29,0.63 0.431,0.418 0.9,0.804 1.379,1.173 0.121,0.093 0.336,0.076 0.508,0.11 C 4.758,-4.113 4.757,-4.272 4.728,-4.427 4.665,-4.757 4.521,-5.086 4.527,-5.414 4.548,-6.617 4.263,-7.688 3.184,-8.434 1.99,-9.26 0.694,-9.393 -0.627,-8.757 c -1.321,0.637 -1.995,1.714 -1.963,3.105 0.031,1.413 0.781,2.454 2.148,3.038 0.36,0.153 0.461,0.326 0.449,0.668 C -0.017,-1.305 0,-0.662 0,0" /></g><g
       transform="translate(348.4459,459.466)"
       id="g330"><path
         id="path332"
         style="fill:#ffffff;fill-opacity:1;fill-rule:nonzero;stroke:none"
         d="M 0,0 C -0.21,0.335 -0.385,0.614 -0.538,0.859 1.391,2.678 3.302,4.48 5.215,6.283 5.2,6.298 5.232,6.281 5.238,6.258 5.509,5.21 5.505,5.213 4.701,4.453 3.152,2.99 1.608,1.524 0,0" /></g><g
       transform="translate(353.0907,468.2775)"
       id="g334"><path
         id="path336"
         style="fill:#ffffff;fill-opacity:1;fill-rule:nonzero;stroke:none"
         d="m 0,0 c 0.084,-0.345 0.179,-0.644 0.22,-0.949 0.018,-0.126 -0.038,-0.306 -0.131,-0.396 -1.8,-1.716 -3.61,-3.423 -5.419,-5.13 -0.019,-0.017 -0.058,-0.016 -0.131,-0.035 0.128,0.57 0.243,1.122 0.381,1.67 0.027,0.107 0.128,0.206 0.216,0.289 1.535,1.457 3.073,2.911 4.612,4.365 C -0.188,-0.126 -0.109,-0.08 0,0" /></g><g
       transform="translate(354.1932,463.304)"
       id="g338"><path
         id="path340"
         style="fill:#ffffff;fill-opacity:1;fill-rule:nonzero;stroke:none"
         d="m 0,0 c 0.507,-0.778 0.136,-1.312 -0.503,-1.869 -1.152,-1.005 -2.229,-2.088 -3.34,-3.136 -0.459,-0.433 -1.032,-0.336 -1.262,0.14 C -3.383,-3.224 -1.682,-1.603 0,0" /></g><g
       transform="translate(352.3055,469.2046)"
       id="g342"><path
         id="path344"
         style="fill:#ffffff;fill-opacity:1;fill-rule:nonzero;stroke:none"
         d="m 0,0 c -1.252,-1.181 -2.51,-2.367 -3.776,-3.561 0.231,0.77 0.12,1.67 0.947,2.254 0.239,0.168 0.467,0.372 0.636,0.601 C -1.636,0.045 -0.874,0.183 0,0" /></g><g
       transform="translate(351.774,458.0605)"
       id="g346"><path
         id="path348"
         style="fill:#ffffff;fill-opacity:1;fill-rule:nonzero;stroke:none"
         d="M 0,0 C 0.938,0.891 1.823,1.73 2.752,2.612 2.239,1.77 1.762,0.968 1.256,0.182 1.189,0.077 0.976,0.024 0.824,0.008 0.563,-0.02 0.297,0 0,0" /></g></g></g></g></svg>
